<?xml version="1.0" standalone="no"?>
<!DOCTYPE svg PUBLIC "-//W3C//DTD SVG 20010904//EN"
 "http://www.w3.org/TR/2001/REC-SVG-20010904/DTD/svg10.dtd">
<svg version="1.0" xmlns="http://www.w3.org/2000/svg"
 width="1080.000000pt" height="1080.000000pt" viewBox="0 0 1080.000000 1080.000000"
 preserveAspectRatio="xMidYMid meet">

<g transform="translate(0.000000,1080.000000) scale(0.100000,-0.100000)"
fill="#000000" stroke="none">
<path d="M8605 7555 l-120 -74 -5 -569 -5 -570 -65 39 c-126 77 -91 73 -802
77 -608 3 -641 2 -734 -18 -291 -60 -495 -262 -591 -581 l-28 -94 0 -585 0
-585 29 -85 c103 -305 320 -515 623 -602 77 -22 90 -22 733 -26 433 -2 683 1
737 8 188 25 364 112 502 251 107 106 181 234 232 399 l23 75 4 1335 c2 734 0
1376 -3 1427 l-7 91 -51 7 c-76 10 -193 59 -266 110 -36 25 -69 45 -75 45 -6
-1 -65 -34 -131 -75z m-234 -1770 c24 -17 57 -50 74 -74 l30 -43 3 -476 c2
-331 0 -489 -8 -515 -14 -49 -74 -115 -125 -138 -37 -17 -82 -19 -654 -19
l-613 0 -50 27 c-30 17 -62 45 -81 73 l-32 45 0 506 0 506 35 45 c36 47 72 74
118 88 15 5 304 8 644 7 l616 -2 43 -30z"/>
<path d="M2770 7071 c-97 -26 -166 -67 -247 -147 -75 -74 -94 -109 -281 -504
-51 -110 -125 -264 -197 -415 -31 -66 -72 -151 -90 -190 -45 -97 -126 -267
-290 -610 -31 -66 -76 -160 -100 -210 -24 -49 -69 -144 -100 -210 -32 -66 -70
-147 -85 -180 -15 -33 -64 -136 -109 -228 -44 -93 -81 -170 -81 -173 0 -2 -22
-47 -48 -101 -27 -54 -60 -124 -75 -156 l-26 -57 398 0 397 0 51 108 c50 103
103 216 183 387 21 44 61 130 90 190 28 61 86 182 127 270 42 88 106 225 144
304 38 79 69 145 69 146 0 2 36 78 80 170 44 92 80 168 80 170 0 5 169 359
189 395 21 39 55 56 95 46 27 -7 27 -7 141 -251 18 -38 74 -158 125 -265 51
-107 121 -256 155 -330 35 -74 86 -184 115 -245 29 -60 80 -171 115 -245 35
-74 86 -184 115 -245 29 -60 65 -137 80 -170 15 -33 49 -105 75 -160 25 -55
65 -139 87 -187 l41 -88 398 0 398 0 -18 43 c-10 23 -45 96 -76 162 -32 66
-82 172 -112 235 -31 63 -75 156 -98 205 -47 100 -114 239 -200 420 -54 113
-98 206 -185 390 -21 44 -64 134 -95 200 -32 66 -74 156 -95 200 -21 44 -62
132 -93 195 -30 63 -118 250 -197 415 -243 514 -237 503 -330 592 -127 121
-341 172 -520 124z"/>
<path d="M5070 5460 l0 -1570 350 0 350 0 0 1570 0 1570 -350 0 -350 0 0
-1570z"/>
<path d="M2670 4529 c-60 -27 -107 -74 -136 -134 -21 -44 -24 -64 -24 -176 0
-115 2 -129 26 -177 33 -66 90 -115 159 -137 45 -14 86 -16 242 -13 165 3 193
6 233 24 58 27 108 77 134 134 24 54 35 231 17 297 -20 74 -69 134 -139 170
l-64 33 -201 0 c-181 0 -207 -3 -247 -21z"/>
<path d="M1431 3298 c-10 -24 -96 -220 -190 -437 -94 -216 -171 -397 -171
-402 0 -5 22 -9 48 -9 l49 0 28 65 27 65 245 -2 245 -3 25 -62 25 -63 49 0
c33 0 49 4 48 13 0 6 -84 205 -188 442 -131 300 -192 431 -204 433 -12 2 -23
-10 -36 -40z m145 -396 c52 -125 94 -230 94 -234 0 -5 -92 -8 -205 -8 -113 0
-205 3 -205 7 0 4 46 117 102 251 75 181 104 239 110 228 5 -9 52 -119 104
-244z"/>
<path d="M5968 3321 c-163 -52 -281 -192 -310 -365 -23 -138 34 -300 137 -394
144 -132 337 -158 530 -73 87 38 85 34 85 207 0 182 17 166 -174 162 -141 -3
-155 -9 -142 -61 l6 -27 110 0 110 0 0 -84 0 -84 -32 -20 c-45 -27 -132 -52
-184 -52 -23 0 -70 9 -105 20 -163 51 -258 193 -246 364 6 89 33 152 94 217
55 59 114 92 196 109 87 18 201 -6 268 -56 l34 -25 22 28 c33 40 29 59 -19 90
-100 63 -262 82 -380 44z"/>
<path d="M7941 3298 c-10 -24 -96 -220 -190 -437 -94 -216 -171 -397 -171
-402 0 -5 22 -9 48 -9 l49 0 28 65 27 65 245 -2 245 -3 25 -62 25 -63 49 0
c33 0 49 4 48 13 0 6 -84 205 -188 442 -131 300 -192 431 -204 433 -12 2 -23
-10 -36 -40z m145 -396 c52 -125 94 -230 94 -234 0 -5 -92 -8 -205 -8 -113 0
-205 3 -205 7 0 4 46 117 102 251 75 181 104 239 110 228 5 -9 52 -119 104
-244z"/>
<path d="M2020 2890 l0 -440 45 0 45 0 0 440 0 440 -45 0 -45 0 0 -440z"/>
<path d="M2365 3318 c-3 -7 -4 -204 -3 -438 l3 -425 45 0 45 0 3 108 3 107
107 1 c59 0 131 4 160 8 l52 7 58 -115 57 -116 48 -3 c28 -2 47 1 47 8 0 5
-27 64 -60 130 -33 66 -60 123 -60 127 0 5 16 19 35 32 19 13 48 44 65 69 110
167 44 401 -138 485 -43 20 -67 22 -255 25 -165 3 -208 1 -212 -10z m429 -102
c162 -80 181 -304 35 -412 -49 -36 -91 -44 -236 -44 l-133 0 0 246 0 247 139
-5 c126 -4 143 -7 195 -32z"/>
<path d="M3236 3314 c-8 -20 -8 -828 0 -848 5 -14 43 -16 325 -16 l319 0 0 45
0 45 -275 0 -276 0 3 123 3 122 220 5 220 5 0 35 0 35 -220 5 -220 5 -3 182
-2 183 267 2 268 3 3 43 3 42 -314 0 c-278 0 -316 -2 -321 -16z"/>
<path d="M4416 3314 c-9 -25 -7 -837 3 -853 7 -10 48 -12 212 -9 182 4 210 7
261 27 173 67 273 201 285 382 10 131 -29 240 -118 334 -103 109 -189 135
-450 135 -161 0 -188 -2 -193 -16z m465 -106 c70 -32 129 -90 165 -160 22 -42
28 -71 32 -138 5 -104 -18 -174 -79 -244 -84 -95 -173 -126 -366 -126 l-123 0
0 351 0 351 158 -4 c144 -3 162 -6 213 -30z"/>
<path d="M5370 2890 l0 -440 45 0 45 0 0 440 0 440 -45 0 -45 0 0 -440z"/>
<path d="M6622 2893 l3 -438 48 -3 47 -3 0 440 0 441 -50 0 -50 0 2 -437z"/>
<path d="M6884 3316 c-3 -8 -4 -25 -2 -38 3 -23 5 -23 136 -26 l132 -3 0 -399
0 -400 44 0 c31 0 46 5 50 16 3 9 6 189 6 400 l0 384 130 0 130 0 0 40 0 40
-310 0 c-260 0 -312 -2 -316 -14z"/>
<path d="M8527 3323 c-10 -9 -8 -845 1 -861 7 -9 69 -12 278 -10 251 3 269 4
272 21 2 10 1 29 -2 43 l-6 24 -225 0 -225 0 0 395 0 395 -43 0 c-24 0 -47 -3
-50 -7z"/>
</g>
</svg>
